<?xml version="1.0" encoding="utf-8"?>
<!-- Generator: Adobe Illustrator 19.0.0, SVG Export Plug-In . SVG Version: 6.00 Build 0)  -->
<svg version="1.1" id="Layer_1" xmlns="http://www.w3.org/2000/svg" xmlns:xlink="http://www.w3.org/1999/xlink" x="0px" y="0px"
	 viewBox="-180 58.3 480 480" style="enable-background:new -180 58.3 480 480;" xml:space="preserve">
<style type="text/css">
	.st0{fill:#98CA69;}
	.st1{fill:#EDEFF1;}
	.st2{fill:#6E83B7;}
	.st3{fill:#D3D3D3;}
	.st4{fill:#466089;}
</style>
<g>
	<path class="st0" d="M-101.3,481.9v12.2l12.2,12.2h12.2l201.2-201.1v-18.3l-15.3-15.3L-101.3,481.9z"/>
	<path class="st1" d="M165.5,264l27.3-27.3c6.9-6.9,10.7-16.2,10.7-25.9v-33.6l-94.4,94.4l15.3,15.3l12.2-12.2h3.1
		C149.3,274.7,158.6,270.8,165.5,264z"/>
</g>
<g>
	<path class="st1" d="M76,357.8l15.4-15.4l-38.6-53.6L-78.4,187.9h-15.4L76,357.8z"/>
	<path class="st1" d="M76,357.8l-15.4,15.4L7,334.7L-93.9,203.4v-15.4L76,357.8z"/>
	<path class="st2" d="M106.9,473.7c0,21.3,17.3,38.6,38.6,38.6s38.6-17.3,38.6-38.6c0-3.1-0.4-6-1.1-8.8c2.9,0.7,5.8,1.1,8.8,1.1
		c21.3,0,38.6-17.3,38.6-38.6s-17.3-38.6-38.6-38.6c-14.6,0-27.2,8.3-33.8,20.3l-66.6-66.6l-30.9,30.9l66.6,66.6
		C115.2,446.4,106.9,459,106.9,473.7z M191.9,450.5c-12.8,0-23.2-10.4-23.2-23.2c0-12.8,10.4-23.2,23.2-23.2s23.2,10.4,23.2,23.2
		C215,440.1,204.6,450.5,191.9,450.5z M122.3,473.7c0-12.8,10.4-23.2,23.2-23.2s23.2,10.4,23.2,23.2c0,12.8-10.4,23.2-23.2,23.2
		S122.3,486.5,122.3,473.7z"/>
	<path class="st3" d="M-86.2,187.9l166,166l-7.7,7.7l-166-166v-7.7H-86.2z"/>
	<path class="st4" d="M154.3,436.2c-0.7-2.9-1.1-5.8-1.1-8.8L79.9,354l-7.7,7.7l73.4,73.4C148.6,435.1,151.5,435.5,154.3,436.2z"/>
</g>
<g>
	<path class="st2" d="M60,211.1c9.9,0,16.7,8.7,30.5,8.7c9.8,0,21.8-7.7,21.8-19c0-34.9-30.2-52.3-52.3-52.3
		c-22.1,0-52.3,17.4-52.3,52.3c0,11.3,12,19,21.8,19C43.3,219.8,50.1,211.1,60,211.1z"/>
	<path class="st2" d="M4.5,131.5c6.2,6.8,12.6,24.9,5.7,31.1c-6.8,6.2-24.2-1.7-30.5-8.5c-6.2-6.8-5.8-17.4,1.1-23.7
		C-12.4,124.2-1.7,124.6,4.5,131.5z"/>
	<path class="st2" d="M10.4,113.6c4.1,11.3,21,29.5,32.3,25.4c11.3-4.1,12.7-28.9,8.7-40.2c-4.1-11.3-16.6-17.2-27.9-13.1
		C12.2,89.7,6.3,102.2,10.4,113.6z"/>
	<path class="st2" d="M115.5,131.5c-6.2,6.8-12.6,24.9-5.7,31.1c6.8,6.2,24.2-1.7,30.5-8.5c6.2-6.8,5.8-17.4-1.1-23.7
		C132.3,124.2,121.7,124.6,115.5,131.5z"/>
	<path class="st2" d="M109.6,113.6c-4.1,11.3-21,29.5-32.3,25.4c-11.3-4.1-12.8-28.9-8.7-40.2s16.6-17.2,27.9-13.1
		C107.8,89.7,113.7,102.2,109.6,113.6z"/>
</g>
</svg>
