<?xml version="1.0" encoding="utf-8"?>
<!-- Generator: Adobe Illustrator 19.0.0, SVG Export Plug-In . SVG Version: 6.00 Build 0)  -->
<svg version="1.1" id="Layer_1" xmlns="http://www.w3.org/2000/svg" xmlns:xlink="http://www.w3.org/1999/xlink" x="0px" y="0px"
	 viewBox="-176 54.3 488 488" style="enable-background:new -176 54.3 488 488;" xml:space="preserve">
<style type="text/css">
	.st0{fill:#6E83B7;}
	.st1{fill:#EDEFF1;}
	.st2{fill:#D3D3D3;}
	.st3{fill:#466089;}
	.st4{fill:#528EA3;}
	.st5{fill:#6CC9DE;}
	.st6{fill:#EBF1F6;}
	.st7{fill:#3988A7;}
	.st8{fill:#FFE352;}
	.st9{fill:#98CA69;}
</style>
<path class="st0" d="M288,54.3H-64c-8.8,0-16,7.2-16,16v304c0,8.8,7.2,16,16,16h8v16c0,8.8,7.2,16,16,16h304c8.8,0,16-7.2,16-16v-16
	h8c8.8,0,16-7.2,16-16v-304C304,61.4,296.8,54.3,288,54.3z"/>
<path class="st1" d="M-64,70.3h352v272H-64V70.3z"/>
<path class="st2" d="M-64,334.3h352v8H-64V334.3z"/>
<path class="st3" d="M-56,390.3h336v8H-56V390.3z"/>
<g>
	<path class="st4" d="M-15.8,207.8c0.1-33.7,0.6-67.5,0.2-101.2c-0.2-13.4,4-23.5,15.5-30.4c0.4,0,0.8-0.2,1-0.5
		c7-1.6,14.1-1.4,21.2-1.4c35.8-0.1,71.7-0.3,107.5-0.4c26.6,0.1,53.3,1.2,79.9,0c16.3-0.7,31.7,14.3,30.8,30.8
		c-1.2,22.7-0.1,45.5,0.1,68.3c-0.1,41.9-0.3,83.8-0.3,125.8c0,9.7-1.8,18.1-10.3,24.5c-5.3,4-10.5,6.4-17.1,6.4
		c-18.4,0.1-36.7,0.2-55.1,0.4c-45-0.1-89.9-0.3-134.9-0.4c-3.3,0-6.6,0-9.9,0c-17.6-0.2-28.1-10.6-28.2-28.2
		c-0.2-28.8,0-57.6-0.1-86.4C-15.5,212.7-15.7,210.2-15.8,207.8z M113.1,80.4c-32.7,0-65.4,0-98.1,0c-17.7,0-24.3,6.7-24.3,24.5
		c0,64.9,0,129.7,0,194.6c0,17.2,6.8,24,23.8,24c65.1,0.1,130.3,0,195.4,0c17.1,0,23.9-6.9,23.9-24c0.1-64.9,0-129.7,0-194.6
		c0-17.8-6.7-24.5-24.3-24.5C177.4,80.3,145.2,80.4,113.1,80.4z"/>
	<path class="st4" d="M181.1,173.9c10.3,12.1,9.1,16.5-6.8,28.1c11.2,11.7,9.3,21.8-5.6,28.5c-12.4,5.6-25.9,6.9-39.2,8.6
		c-1.7,0.2-4.3-1-4.7,1.8c-0.4,2.4,1.1,4.3,3,5.5c4.3,2.9,9.4,2.9,13.2,0.1c8.7-6.2,18.8-4.1,28.1-5.4c8.7-1.2,17.3,13.7,15.6,25.2
		c-1,6.6-4.5,11.7-9.3,16.1c-7.3,6.7-16,10.6-25.6,12.4c-8.1,1.5-15.4,0.1-19.4-8.5c-0.9-1.9-2-4.5-4.7-3.8c-3,0.7-1.6,3.6-1.9,5.6
		c-0.3,2.2-0.2,4.4-0.7,6.5c-1.2,5.6-5.2,8.5-10.6,8.7c-5.5,0.2-9.6-2.6-11.1-8c-0.7-2.6-0.5-5.4-0.9-8.1c-0.2-1.8,0.7-4.2-2-4.7
		c-1.9-0.4-2.8,1.2-3.8,2.5c-9.5,11.9-17.6,13.2-34.2,5.2c-15.7-7.5-23.1-19.6-20.2-32.9c2.5-11.2,7.8-14.4,19-15.6
		c9.3-1,17,1.5,25,5.2c3.6,1.7,7.4,2,11.1,0.2c2.6-1.3,4.8-3.4,4.2-6.4c-0.6-2.9-3.7-1.5-5.6-1.7c-12.8-1.7-25.7-3-37.6-8.2
		c-15.5-6.7-17.6-16.9-6.2-28.9c-15.9-11.2-17.1-15.9-6.8-28c-6-3-12.9-4.8-16.4-11.2c-3.9-7.3-0.1-12.5,5.2-17.2
		c-1.2-2.8-4.1-2.6-6.1-3.6c-5.1-2.7-9.2-6-9.2-12.5c0-6.6,4.2-9.9,9.4-12.2c10.9-4.8,22.6-6.5,34.3-8.4c6.2-1,12.5-1.5,18.8-2
		c5.5-0.4,9.2,1.9,9.5,7.8c0.3,5.6-2.8,8.5-8.3,9.2c-11.3,1.6-22.8,2.3-34.3,5.5c5.9,2.6,11.8,2.3,17.4,3.2
		c9.1,1.5,18.2,2.8,27.4,4.2c7.2,1.1,10.9-0.9,9.8-9c-0.6-4.6-0.3-9.3-0.1-14c0.4-8.2,4.9-13.2,11.7-13.2
		c6.5,0.1,10.9,4.7,11.3,12.6c0.3,5.5,0.8,11.1,0,16.5c-1,6.8,1.9,8.1,7.7,7.2c15.3-2.3,30.7-4.5,48.1-7
		c-12.4-3.8-23.4-4.4-34.1-5.9c-6.1-0.8-10.2-3.1-9.7-9.6c0.5-6.9,5.4-8,11.3-7.5c14.8,1.2,29.4,3.6,43.7,7.5
		c4.2,1.1,8.4,2.7,11.9,5.5c6.6,5.2,6.9,13.8,0.3,19c-3.1,2.5-6.9,4-10.5,6C203.6,158.9,201.3,164.9,181.1,173.9z M155.8,206.7
		c3,1.3,4.7,2,6.4,2.8c2.6,1.3,6.4,1.7,6.7,5.3c0.3,4.3-3.9,4.8-6.8,6c-9.5,3.9-19.6,5.1-29.6,6.5c-14.4,2-14.2,1.5-14.7-13.1
		c-0.3-7.7,2.4-9.6,9.8-10c15.8-0.8,31.7-2.2,46.3-9.5c5.1-2.5,10.4-5.3,6.3-12.4c-3.5-6-9.9-7.1-16.1-3c1.3,0.5,2.6,0.9,3.8,1.6
		c2.7,1.6,7.3,1.7,7,5.9c-0.3,3.3-4.2,4-7,5c-11.2,4-22.8,5.7-34.6,6.3c-16.5,0.8-16.7,0.5-15.4-16.5c0.3-3.9,1.7-5.1,5.5-5.3
		c10.6-0.8,21.2-1.9,31.8-3.1c10.1-1.1,20-3.4,29.4-7.1c4.5-1.8,9.6-4.7,8.3-9.8c-1.5-5.7-7-8.9-13.5-8.7c-2.9,0.1-5.9,1-10,1.7
		c3.4,1.1,5.7,1.8,7.9,2.5c3.3,1.1,8,1.3,7.9,5.8c-0.1,3.8-4.7,4.4-7.6,5.2c-14.5,4.4-29.5,6.4-44.5,6.9
		c-17.3,0.5-14.9,3.6-15.3-15.8c-0.1-5.4,2.2-7.2,7.4-7.2c14.5,0.1,29-1.4,43.3-3.4c8.6-1.2,17.1-3.6,25.5-6c3.7-1,7.5-3.5,7.6-7.8
		c0-4.3-3.8-6.4-7.6-7.6c-4.2-1.3-8.3-2.8-12.6-3.6c-11.3-2.2-22.6-4.1-33.9-5.9c-2.4-0.4-5.6-0.6-5.8,2.7c-0.2,2.7,2.8,2.9,4.9,3.4
		c1.3,0.3,2.7,0.1,4.1,0.3c11.4,1.4,22.8,2.9,33.9,6.1c3,0.9,7.4,0.8,7.3,5.1c-0.1,4-4.3,3.4-7.1,4.2c-19.9,5.9-40.6,5.2-61,7.5
		c-4.8,0.5-6-2.5-6-6.8c0.1-7.1,0-14.3,0-21.4c0-3.9-1.6-6.3-5.8-6.3c-4.2,0-5.7,2.5-5.7,6.4c0,3.6,0,7.1,0,10.7
		c0,16.4,0,16.3-15.9,16.1c-17-0.2-33.9-1.9-50.4-6c-2.9-0.7-7.7-0.1-7.8-4.5c-0.1-4.2,4.5-4.1,7.5-5c12.1-3.4,24.6-5,37.2-6.1
		c2.4-0.2,5.6,0,5.6-3.3c0-3.4-3.2-3.3-5.6-2.9c-13,2-26.1,3.1-38.7,6.8c-6,1.8-15.3,2.1-15.3,10c0,8.2,9.1,9.1,15.6,10.8
		c17,4.4,34.6,5.4,52,6.5c17.1,1.1,15.8-3.5,15.9,17.7c0,4.4-1.8,5.6-5.9,5.7c-10.7,0.1-21.3-1.2-31.9-2.7c-8.1-1.1-16-3.3-24-5.4
		c-2.4-0.6-5.9-1.3-5.7-4.9c0.3-3.3,3.6-3.8,6.1-4.8c2.7-1.1,6.1-0.7,8.4-3.5c-2.2-0.2-4.1-0.3-6-0.6c-6.9-1.1-15.7,2.6-16.1,7.6
		c-0.6,7.2,5.5,9.3,11,11.2c15.4,5.3,31.3,7.6,47.6,8c16.3,0.4,17.9,2.4,16.4,18.6c0,0.3,0,0.5,0,0.8c0,4-2.5,5.5-5.9,5
		c-13.2-1.9-26.8-2-39.6-6.1c-4.3-1.4-10.8-1.8-11-6.9c-0.2-4.7,6.4-4.9,10.1-6.8c0.3-0.1,0.3-0.8,0.4-1.2
		c-7.7-2.8-14.3-1.1-16.7,5.1c-3.1,8,3.7,9.8,8.6,12.2c12.6,6.1,26.4,7,39.9,8.6c14.5,1.8,14.6,1.4,14.2,16.1c0,1.1,0,2.2-0.1,3.3
		c0,2.8-1.5,3.9-4.2,3.9c-14.9-0.1-29.5-2.3-43.3-8.3c-5-2.2-5-5.3-0.1-8.3c2.6-1.6,6.2-1.4,8.5-4.4c-1.3-0.3-2.1-0.3-2.9-0.6
		c-7-3-12.2,0.4-15,6c-3.4,6.7,2.4,9.9,7.3,12.5c3.4,1.8,7.1,2.9,10.7,4.1c11,3.5,22.6,3.7,34,5.2c4.7,0.6,5.2,3,4.9,6.7
		c-0.9,9.5-10.7,15.8-20.9,12.8c-6.3-1.9-12.3-4.7-18.6-6.6c-6.5-2-12.9-1.2-17.2,4.3c-4.5,5.6-6,12.3-2.7,19.3
		c4,8.6,11.6,13,19.8,16.3c12.8,5.2,15.4,4.4,24.1-6.2c3.4-4.1,7.7-3.9,12-3c4.5,0.9,3.4,5,3.5,8.1c0.1,1.9,0,3.8,0,5.8
		c0,3.6,1.8,5.6,5.5,5.7c3.6,0.1,5.8-1.5,5.9-5.3c0.1-1.9,0-3.9,0.1-5.8c0.2-3.4-1.2-7.7,3.9-8.7c4.4-0.8,8.6-0.8,11.9,3.4
		c8.2,10.6,9,10.5,21.9,6.6c6.8-2.1,12.4-6,17.5-10.5c6.7-6,7.7-15.3,3.2-23.4c-3.8-6.8-9.3-8.4-19.2-6.4
		c-6.3,1.3-11.8,4.5-17.8,6.2c-8.8,2.5-16.6-0.8-20-8.4c-3.1-6.9-1.7-9.7,5.7-11.1c3.5-0.6,7-0.9,10.6-1.3c11.7-1.4,23.3-3.1,33.9-9
		c3.8-2.1,7.1-4.6,6.2-9.6c-0.9-4.9-4.9-7.2-9-8.8C163.4,203.8,160.5,206.4,155.8,206.7z M49.2,157.4c15.9,4.7,30.9,5.5,45.9,6.9
		c3.4,0.3,6.2-0.2,5.9-4.6c-0.2-3.3,1.2-7.4-4.5-7.8C80.9,150.8,65.5,151.6,49.2,157.4z M175.3,157.3c-16.5-5.8-32.1-6.7-48-5.3
		c-5.2,0.5-3.5,4.6-3.8,7.6c-0.4,4.3,2.2,5,5.7,4.6C144.2,162.9,159.2,162.1,175.3,157.3z M59.2,186.5c9.1,3.2,16.9,4.1,24.7,5.3
		c4.6,0.7,8.5,3.6,13.9,1.5c4.5-1.7,2.9-4.5,3.2-7.1c0.3-2.7-0.3-4.4-3.8-4.9C84.7,179.8,72.5,180.7,59.2,186.5z M165.9,186.5
		c-13.9-5.6-25.8-6.8-38.2-5.3c-4.6,0.5-4.2,3.1-4.3,6.1c-0.1,3.3,0.1,5.9,4.6,5.6C140.2,192.1,152.1,190.5,165.9,186.5z
		 M63.9,215.1c10.6,4.4,20.9,5.2,31.2,6.5c3.5,0.5,6.1,0.6,6-4c-0.1-3.8,0.7-7.5-5.3-8.1C84.9,208.5,74.8,211,63.9,215.1z
		 M160.8,215.1c-11.6-4.2-21.8-6.7-32.7-5.5c-5.5,0.6-4.6,4.3-4.7,7.8c0,2.7,0.5,5,4.1,4.5C138.3,220.4,149.3,219.8,160.8,215.1z"/>
	<path class="st5" d="M155.8,206.7c4.7-0.4,7.5-3,10.8-1.6c4.1,1.7,8.1,3.9,9,8.8c0.9,5-2.4,7.5-6.2,9.6c-10.5,5.8-22.1,7.6-33.9,9
		c-3.5,0.4-7.1,0.6-10.6,1.3c-7.4,1.3-8.8,4.2-5.7,11.1c3.4,7.6,11.2,10.9,20,8.4c6-1.7,11.6-4.9,17.8-6.2c9.9-2,15.4-0.5,19.2,6.4
		c4.5,8.1,3.5,17.4-3.2,23.4c-5.1,4.5-10.7,8.5-17.5,10.5c-12.9,3.9-13.7,4-21.9-6.6c-3.3-4.2-7.5-4.2-11.9-3.4
		c-5.1,0.9-3.7,5.3-3.9,8.7c-0.1,1.9,0,3.8-0.1,5.8c-0.2,3.8-2.3,5.4-5.9,5.3c-3.7-0.1-5.5-2.1-5.5-5.7c0-1.9,0-3.9,0-5.8
		c-0.2-3.2,1-7.2-3.5-8.1c-4.3-0.9-8.6-1.1-12,3c-8.7,10.6-11.3,11.4-24.1,6.2c-8.2-3.3-15.8-7.7-19.8-16.3
		c-3.3-7-1.7-13.7,2.7-19.3c4.4-5.5,10.8-6.3,17.2-4.3c6.3,1.9,12.3,4.8,18.6,6.6c10.1,3,20-3.2,20.9-12.8c0.3-3.7-0.1-6-4.9-6.7
		c-11.4-1.5-23-1.7-34-5.2c-3.6-1.2-7.4-2.3-10.7-4.1c-4.9-2.6-10.6-5.8-7.3-12.5c2.8-5.7,8-9.1,15-6c0.7,0.3,1.6,0.3,2.9,0.6
		c-2.3,3-5.9,2.8-8.5,4.4c-4.8,3-4.9,6.1,0.1,8.3c13.7,6,28.3,8.1,43.3,8.3c2.6,0,4.2-1.1,4.2-3.9c0-1.1,0-2.2,0.1-3.3
		c0.3-14.7,0.3-14.3-14.2-16.1c-13.5-1.7-27.4-2.5-39.9-8.6c-4.9-2.4-11.7-4.2-8.6-12.2c2.4-6.1,8.9-7.9,16.7-5.1
		c-0.1,0.4-0.1,1-0.4,1.2c-3.8,1.9-10.3,2.1-10.1,6.8c0.2,5.1,6.7,5.5,11,6.9c12.9,4.1,26.4,4.3,39.6,6.1c3.5,0.5,5.9-1,5.9-5
		c0-0.3,0-0.6,0-0.8c1.5-16.2-0.1-18.1-16.4-18.6c-16.3-0.4-32.2-2.7-47.6-8C37,165,31,163,31.5,155.7c0.4-5.1,9.2-8.7,16.1-7.6
		c1.9,0.3,3.8,0.4,6,0.6c-2.4,2.8-5.7,2.4-8.4,3.5c-2.4,0.9-5.8,1.5-6.1,4.8c-0.3,3.6,3.3,4.3,5.7,4.9c7.9,2.1,15.9,4.3,24,5.4
		c10.6,1.4,21.2,2.8,31.9,2.7c4.1-0.1,5.9-1.3,5.9-5.7c-0.1-21.2,1.2-16.6-15.9-17.7c-17.4-1.1-35-2.1-52-6.5
		c-6.5-1.7-15.6-2.6-15.6-10.8c0-7.9,9.3-8.2,15.3-10c12.6-3.7,25.8-4.8,38.7-6.8c2.5-0.4,5.6-0.6,5.6,2.9c0,3.3-3.2,3.1-5.6,3.3
		c-12.5,1.1-25,2.7-37.2,6.1c-3,0.8-7.6,0.7-7.5,5c0.1,4.4,4.8,3.8,7.8,4.5c16.5,4.2,33.4,5.8,50.4,6c15.9,0.2,15.9,0.3,15.9-16.1
		c0-3.6,0-7.1,0-10.7c0-3.9,1.5-6.4,5.7-6.4c4.2,0,5.8,2.3,5.8,6.3c0,7.1,0.1,14.3,0,21.4c-0.1,4.2,1.2,7.3,6,6.8
		c20.3-2.3,41.1-1.5,61-7.5c2.7-0.8,7-0.2,7.1-4.2c0.1-4.3-4.3-4.2-7.3-5.1c-11.1-3.2-22.5-4.6-33.9-6.1c-1.4-0.2-2.8,0-4.1-0.3
		c-2-0.5-5.1-0.7-4.9-3.4c0.2-3.4,3.5-3.1,5.8-2.7c11.3,1.8,22.6,3.8,33.9,5.9c4.3,0.8,8.4,2.3,12.6,3.6c3.8,1.2,7.6,3.3,7.6,7.6
		c0,4.3-3.9,6.7-7.6,7.8c-8.4,2.4-16.9,4.8-25.5,6c-14.4,2-28.8,3.5-43.3,3.4c-5.2,0-7.5,1.7-7.4,7.2c0.4,19.4-2,16.3,15.3,15.8
		c15-0.5,30-2.5,44.5-6.9c2.9-0.9,7.5-1.4,7.6-5.2c0.1-4.4-4.6-4.7-7.9-5.8c-2.3-0.7-4.6-1.5-7.9-2.5c4.2-0.7,7.1-1.6,10-1.7
		c6.4-0.2,11.9,3,13.5,8.7c1.3,5-3.8,8-8.3,9.8c-9.5,3.7-19.4,6-29.4,7.1c-10.6,1.2-21.2,2.3-31.8,3.1c-3.8,0.3-5.2,1.5-5.5,5.3
		c-1.3,16.9-1.1,17.2,15.4,16.5c11.8-0.6,23.4-2.3,34.6-6.3c2.7-1,6.7-1.7,7-5c0.3-4.1-4.3-4.3-7-5.9c-1.2-0.7-2.5-1.1-3.8-1.6
		c6.2-4.1,12.6-3,16.1,3c4.1,7.1-1.2,9.9-6.3,12.4c-14.6,7.3-30.5,8.7-46.3,9.5c-7.5,0.4-10.1,2.3-9.8,10
		c0.5,14.6,0.3,15.1,14.7,13.1c10-1.4,20.1-2.6,29.6-6.5c2.9-1.2,7.1-1.7,6.8-6c-0.2-3.6-4-4-6.7-5.3
		C160.5,208.7,158.8,208,155.8,206.7z M71.9,261.6c-1.4-3.8-3.8-7.8-9.4-7.5c-5.6,0.4-8.4,4.4-8.2,9.5c0.2,4.8,3.8,8.3,8.8,8
		C68,271.3,71.7,268.3,71.9,261.6z M161.5,271.9c5-0.8,8.7-3.6,8.7-8.5c0.1-5-2.7-9.2-8.4-9.3c-5.4-0.1-8.8,3.3-9.1,8.6
		C152.5,268.6,156.8,270.6,161.5,271.9z"/>
	<path class="st6" d="M49.2,157.4c16.3-5.7,31.6-6.5,47.3-5.4c5.7,0.4,4.3,4.5,4.5,7.8c0.3,4.4-2.5,4.9-5.9,4.6
		C80.2,162.9,65.2,162.1,49.2,157.4z"/>
	<path class="st6" d="M175.3,157.3c-16.1,4.8-31.1,5.5-46.1,7c-3.5,0.3-6.1-0.3-5.7-4.6c0.3-3-1.4-7.1,3.8-7.6
		C143.2,150.6,158.8,151.6,175.3,157.3z"/>
	<path class="st6" d="M59.2,186.5c13.4-5.8,25.5-6.7,38.1-5.2c3.5,0.4,4.1,2.2,3.8,4.9c-0.3,2.6,1.3,5.4-3.2,7.1
		c-5.4,2.1-9.3-0.8-13.9-1.5C76.1,190.6,68.3,189.7,59.2,186.5z"/>
	<path class="st6" d="M165.9,186.5c-13.8,4-25.8,5.6-37.9,6.4c-4.5,0.3-4.8-2.3-4.6-5.6c0.1-3-0.4-5.6,4.3-6.1
		C140.1,179.8,152,180.9,165.9,186.5z"/>
	<path class="st6" d="M63.9,215.1c10.9-4.1,21-6.6,31.9-5.6c6,0.6,5.2,4.3,5.3,8.1c0.1,4.6-2.5,4.5-6,4
		C84.8,220.3,74.5,219.5,63.9,215.1z"/>
	<path class="st6" d="M160.8,215.1c-11.6,4.7-22.5,5.3-33.3,6.8c-3.6,0.5-4.1-1.8-4.1-4.5c0.1-3.5-0.8-7.1,4.7-7.8
		C139.1,208.4,149.2,210.9,160.8,215.1z"/>
	<path class="st7" d="M71.9,261.6c-0.2,6.7-3.8,9.7-8.8,10c-4.9,0.3-8.5-3.2-8.8-8c-0.3-5.1,2.6-9.1,8.2-9.5
		C68.1,253.8,70.4,257.7,71.9,261.6z"/>
	<path class="st7" d="M161.5,271.9c-4.7-1.3-9-3.3-8.7-9.1c0.3-5.3,3.7-8.7,9.1-8.6c5.7,0.1,8.5,4.3,8.4,9.3
		C170.2,268.3,166.6,271.1,161.5,271.9z"/>
</g>
<g>
	<path class="st8" d="M80.3,416.6c0.1,63.9-51.6,125.2-127.4,125.7c-69.5,0.5-126.5-55.9-126.9-126.5c-0.4-69,55.7-127.3,127-127.3
		C23.9,288.6,80.2,344.5,80.3,416.6z M-49.8,524.4c9,0,15.2-0.6,21.5-1.6c12-1.8,23.3-6,33.9-11.8c2.8-1.5,3-2.3,1.5-5.1
		c-1-1.8-2.1-3.5-3.2-5.3c-10.7-18.5-21.4-37.1-32.1-55.6c-1.6-2.7-2.4-3.1-5.2-1.8c-9.2,4.3-18.2,3.9-27.3-0.2
		c-2.1-1-3.1-0.7-4.4,1.3c-1.2,1.9-2.2,4-3.4,5.9c-11,18.1-21.1,36.6-31.8,54.8c-2,3.4-1.8,4.3,1.6,6.2
		C-82.6,520.1-65.4,524.2-49.8,524.4z M-116.7,416.9c11.8,0,23.6,0,35.3,0c2.9,0,3.7-0.7,3.9-3.2c0.8-9.7,4.6-17.8,12.9-23.4
		c3.1-2.1,3.2-2.9,1.3-6.2c-7.8-13.5-15.6-27-23.4-40.5c-3.8-6.6-7.5-13.2-11.3-19.9c-1.4-2.5-2.8-2.9-5.3-1.6
		c-0.5,0.3-1.1,0.6-1.6,0.9c-16.3,10.6-29.2,24.2-38.2,41.4c-7.8,15-12.7,30.7-12.8,47.8c0,4,0.6,4.6,4.5,4.6
		C-139.9,416.9-128.3,416.9-116.7,416.9z M23.3,416.9c11.6,0,23.1,0,34.7,0c4.1,0,4.5-0.5,4.3-4.5c-0.9-22.8-7.8-43.4-21.5-61.7
		c-8.5-11.4-18.8-20.8-31-28.2c-2.8-1.7-3.8-1.4-5.5,1.5c-2.6,4.6-5.2,9.2-7.9,13.7c-9.1,15.7-18.1,31.4-27.2,47.1
		c-1.4,2.5-1.3,3.4,0.8,4.7c7,4.4,11.1,10.8,13.1,18.7c0.5,2.1,0.7,4.2,1,6.3c0.2,1.4,1,2,2.2,2.2c1,0.1,2,0.1,3,0.1
		C0.7,416.9,12,416.9,23.3,416.9z M-69.6,415.3c0,12.6,10.4,23.1,22.9,23.1c12.5,0,23-10.4,22.9-23c0-11.8-9.8-23.4-24.4-22.7
		C-60.1,393.2-69.7,403-69.6,415.3z"/>
	<path class="st9" d="M-49.8,524.4c-15.6-0.2-32.8-4.3-48.8-13.2c-3.4-1.9-3.6-2.8-1.6-6.2c10.7-18.2,20.8-36.8,31.8-54.8
		c1.2-1.9,2.2-4,3.4-5.9c1.3-2,2.3-2.2,4.4-1.3c9.1,4.1,18.2,4.5,27.3,0.2c2.8-1.3,3.6-0.9,5.2,1.8c10.7,18.5,21.4,37.1,32.1,55.6
		c1,1.8,2.2,3.5,3.2,5.3c1.5,2.8,1.3,3.6-1.5,5.1c-10.7,5.8-21.9,9.9-33.9,11.8C-34.6,523.8-40.8,524.4-49.8,524.4z"/>
	<path class="st9" d="M-116.7,416.9c-11.6,0-23.2,0-34.7,0c-3.9,0-4.5-0.6-4.5-4.6c0-17.1,4.9-32.8,12.8-47.8
		c9-17.2,21.9-30.9,38.2-41.4c0.5-0.3,1-0.6,1.6-0.9c2.5-1.3,3.9-0.9,5.3,1.6c3.8,6.6,7.5,13.3,11.3,19.9
		c7.8,13.5,15.6,27,23.4,40.5c2,3.4,1.9,4.1-1.3,6.2c-8.3,5.6-12,13.7-12.9,23.4c-0.2,2.5-1,3.2-3.9,3.2
		C-93.2,416.9-104.9,416.9-116.7,416.9z"/>
	<path class="st9" d="M23.3,416.9c-11.3,0-22.6,0-33.9,0c-1,0-2,0-3-0.1c-1.2-0.2-2-0.8-2.2-2.2c-0.3-2.1-0.4-4.2-1-6.3
		c-2-7.9-6.1-14.3-13.1-18.7c-2.1-1.3-2.2-2.2-0.8-4.7c9.1-15.7,18.1-31.4,27.2-47.1c2.6-4.6,5.2-9.2,7.9-13.7
		c1.6-2.8,2.7-3.2,5.5-1.5c12.2,7.3,22.4,16.8,31,28.2c13.7,18.3,20.6,38.9,21.5,61.7c0.2,4.1-0.2,4.5-4.3,4.5
		C46.4,416.9,34.8,416.9,23.3,416.9z"/>
	<path class="st9" d="M-69.6,415.3c-0.1-12.3,9.5-22.1,21.5-22.6c14.6-0.7,24.4,10.9,24.4,22.7c0,12.7-10.4,23.1-22.9,23
		C-59.2,438.4-69.6,427.8-69.6,415.3z"/>
</g>
</svg>
